<svg width="58" height="34" viewBox="0 0 58 34" fill="none" xmlns="http://www.w3.org/2000/svg">
<path d="M29.1372 23.135C27.2968 28.7963 23.8568 33.0062 17.6831 33.9067C13.9544 34.3996 9.56817 32.4969 6.69139 30.276C-0.741595 24.5379 -2.29613 14.2225 3.61746 6.73905C6.41577 3.19777 10.7464 0.57172 15.2361 0.0435012C17.6558 -0.213209 20.3327 0.699384 22.4033 1.90819C25.7544 3.86469 28.0137 6.99826 29.0024 10.7569C30.5922 4.96753 34.9633 1.01266 40.8667 0.0921596C44.2645 -0.437565 48.9847 1.76046 51.5991 3.8445C58.6754 9.48511 60.2995 20.1454 54.3714 27.2704C51.5501 30.6541 47.0854 33.5119 42.6798 33.9915C37.751 34.1883 32.6259 30.9515 30.4305 26.5348C29.909 25.4858 29.5321 24.2483 29.1372 23.135ZM15.1807 2.7221C10.6551 3.998 6.98203 6.08767 4.60013 10.3349C2.9022 13.3625 2.44172 17.1334 3.36952 20.4765C5.13859 26.8509 9.63223 29.4822 15.3767 31.4587L15.4044 22.4479C16.6549 22.9814 17.5431 23.3097 18.9222 23.2219C22.2118 23.0125 24.0299 20.8782 24.7645 17.8518C27.5696 17.819 30.5091 17.8152 33.3073 17.898C34.5507 22.5228 38.4157 24.3591 42.7901 22.6049C42.8509 24.6626 42.8109 26.7146 42.8256 28.7696C42.8289 29.2434 42.7986 31.0567 42.8675 31.4368C43.9287 31.0191 45.0075 30.6457 46.0428 30.1724C53.0668 26.9614 57.1877 19.6346 54.2947 12.0205C52.3071 6.78921 47.8928 4.02345 42.7322 2.71269C42.6915 5.66781 42.764 8.63396 42.6988 11.5847C41.9039 11.2734 41.2871 11.033 40.428 10.9306C36.8303 10.5015 34.1062 12.7272 33.3085 16.1885C30.476 16.1912 27.5572 16.1578 24.7319 16.2012C24.5626 15.4498 24.4384 14.8557 24.0723 14.1687C22.2936 10.8304 18.558 10.0665 15.3672 11.693C15.3688 10.6967 15.4515 3.16792 15.315 2.74504L15.1807 2.7221Z" fill="#007C54"/>
</svg>